<svg width="24" height="23" viewBox="0 0 24 23" fill="none" xmlns="http://www.w3.org/2000/svg">
<path d="M7 20.519C6.45 20.519 5.97933 20.3365 5.588 19.9715C5.196 19.6059 5 19.1666 5 18.6536C5 18.1406 5.196 17.7013 5.588 17.3357C5.97933 16.9707 6.45 16.7882 7 16.7882C7.55 16.7882 8.02067 16.9707 8.412 17.3357C8.804 17.7013 9 18.1406 9 18.6536C9 19.1666 8.804 19.6059 8.412 19.9715C8.02067 20.3365 7.55 20.519 7 20.519ZM17 20.519C16.45 20.519 15.9793 20.3365 15.588 19.9715C15.196 19.6059 15 19.1666 15 18.6536C15 18.1406 15.196 17.7013 15.588 17.3357C15.9793 16.9707 16.45 16.7882 17 16.7882C17.55 16.7882 18.021 16.9707 18.413 17.3357C18.8043 17.7013 19 18.1406 19 18.6536C19 19.1666 18.8043 19.6059 18.413 19.9715C18.021 20.3365 17.55 20.519 17 20.519ZM6.15 5.59608L8.55 10.2595H15.55L18.3 5.59608H6.15ZM7 15.8556C6.25 15.8556 5.68333 15.5484 5.3 14.9341C4.91667 14.3204 4.9 13.7104 5.25 13.1042L6.6 10.8191L3 3.73072H1.975C1.69167 3.73072 1.45833 3.64118 1.275 3.46211C1.09167 3.28365 1 3.0623 1 2.79804C1 2.53378 1.096 2.31211 1.288 2.13304C1.47933 1.95458 1.71667 1.86536 2 1.86536H3.625C3.80833 1.86536 3.98333 1.91199 4.15 2.00526C4.31667 2.09853 4.44167 2.23066 4.525 2.40165L5.2 3.73072H19.95C20.4 3.73072 20.7083 3.88616 20.875 4.19706C21.0417 4.50795 21.0333 4.83439 20.85 5.17637L17.3 11.1455C17.1167 11.4564 16.875 11.6974 16.575 11.8684C16.275 12.0393 15.9333 12.1248 15.55 12.1248H8.1L7 13.9902H18.025C18.3083 13.9902 18.5417 14.0794 18.725 14.2579C18.9083 14.437 19 14.6586 19 14.9229C19 15.1871 18.904 15.4085 18.712 15.587C18.5207 15.766 18.2833 15.8556 18 15.8556H7ZM8.55 10.2595H15.55H8.55Z" fill="black" fill-opacity="0.9"/>
</svg>
